<?xml version="1.0" standalone="no"?>
<!DOCTYPE svg PUBLIC "-//W3C//DTD SVG 20010904//EN"
 "http://www.w3.org/TR/2001/REC-SVG-20010904/DTD/svg10.dtd">
<svg version="1.0" xmlns="http://www.w3.org/2000/svg"
 width="505.000000pt" height="505.000000pt" viewBox="0 0 505.000000 505.000000"
 preserveAspectRatio="xMidYMid meet">
<metadata>
Created by potrace 1.11, written by Peter Selinger 2001-2013
</metadata>
<g transform="translate(0.000000,505.000000) scale(0.100000,-0.100000)"
fill="#000000" stroke="none">
<path d="M2842 4910 c-17 -14 -353 -263 -746 -555 -452 -335 -717 -537 -720
-550 -2 -11 -11 -60 -21 -109 -19 -101 -15 -110 44 -93 26 8 1233 732 1441
865 40 25 97 15 339 -60 222 -69 300 -83 326 -57 6 6 -1 59 -18 147 -15 76
-27 150 -27 165 0 26 -31 57 -57 57 -7 0 -129 49 -271 108 l-259 108 -31 -26z"/>
<path d="M2858 4372 c-2 -4 -246 -156 -543 -337 -409 -249 -971 -606 -1024
-651 -5 -4 -61 -265 -61 -286 0 -25 44 -24 99 2 23 12 371 210 772 441 402
231 740 424 752 430 12 5 30 14 39 21 13 9 22 9 40 0 47 -25 573 -162 620
-162 41 0 48 3 53 23 5 19 -46 302 -56 311 -2 2 -114 38 -249 80 -135 42 -276
87 -315 100 -92 31 -123 38 -127 28z"/>
<path d="M2064 3362 c-446 -252 -818 -461 -827 -465 -9 -3 -29 -24 -45 -46
-39 -53 -113 -381 -92 -406 16 -19 73 -20 103 -1 12 8 130 71 262 141 132 70
276 147 320 170 151 80 700 372 891 473 104 56 203 104 220 107 20 4 140 -25
389 -96 198 -56 381 -104 407 -106 40 -4 47 -2 53 16 6 21 -71 430 -84 443 -5
6 -677 201 -771 224 -8 2 -380 -202 -826 -454z"/>
<path d="M2855 3086 c-84 -28 -1781 -865 -1811 -894 -16 -15 -34 -83 -83 -308
-35 -159 -65 -299 -68 -311 -5 -21 35 -9 498 148 1591 539 1527 518 1556 508
15 -5 230 -61 477 -124 446 -115 558 -135 568 -103 2 6 -32 194 -77 417 l-81
405 -39 12 c-22 7 -215 63 -430 125 -214 63 -396 119 -403 126 -17 16 -55 16
-107 -1z"/>
<path d="M2885 1760 c-12 -4 -93 -27 -180 -50 -88 -24 -531 -143 -985 -266
-454 -122 -842 -226 -863 -229 -20 -4 -40 -11 -43 -16 -8 -13 -204 -914 -204
-937 0 -11 6 -24 13 -30 17 -15 261 -20 1357 -27 l945 -7 660 56 c363 31 679
58 703 62 l42 5 0 82 c0 64 -22 194 -101 597 -56 283 -103 516 -104 518 -1 1
-253 59 -560 127 -537 120 -630 136 -680 115z"/>
</g>
</svg>
